<svg width="26" height="24" viewBox="0 0 26 24" fill="none" xmlns="http://www.w3.org/2000/svg"><path d="M14.0015 0.592769L15.3582 3.51744C15.5822 4.0003 16.2446 4.19005 16.7477 3.9155L19.7952 2.25242C20.6188 1.80299 21.646 2.46088 21.4156 3.29033L20.5633 6.35947C20.4225 6.86619 20.832 7.36297 21.4221 7.40155L24.9964 7.63531C25.9624 7.6985 26.3547 8.76298 25.6154 9.31466L22.8796 11.3559C22.4279 11.693 22.4279 12.307 22.8796 12.644L25.6154 14.6853C26.3548 15.237 25.9625 16.3015 24.9965 16.3647L21.4221 16.5984C20.832 16.637 20.4226 17.1338 20.5633 17.6405L21.4157 20.7096C21.646 21.5391 20.6188 22.197 19.7953 21.7475L16.7478 20.0845C16.2446 19.8099 15.5822 19.9996 15.3582 20.4825L14.0015 23.4072C13.6349 24.1976 12.3653 24.1976 11.9986 23.4072L10.6419 20.4825C10.4179 19.9997 9.75549 19.8099 9.25233 20.0845L6.20476 21.7475C5.38115 22.197 4.35401 21.5391 4.58439 20.7096L5.43672 17.6405C5.57746 17.1338 5.16805 16.637 4.57791 16.5984L1.00358 16.3647C0.0376298 16.3015 -0.354715 15.237 0.38462 14.6853L3.1204 12.644C3.57208 12.307 3.57208 11.693 3.1204 11.356L0.384567 9.31466C-0.354821 8.76298 0.0375236 7.6985 1.00352 7.63531L4.57785 7.40155C5.16799 7.36297 5.57741 6.86619 5.43666 6.35947L4.58434 3.29033C4.35401 2.46088 5.38115 1.80299 6.20471 2.25242L9.25228 3.9155C9.75543 4.1901 10.4178 4.00035 10.6418 3.51744L11.9985 0.592769C12.3652 -0.19759 13.6348 -0.19759 14.0015 0.592769ZM20.2312 12C20.2312 8.48478 16.9873 5.62499 13 5.62499C9.0127 5.62499 5.76882 8.48478 5.76882 12C5.76882 15.5152 9.0127 18.375 13 18.375C16.9873 18.375 20.2312 15.5152 20.2312 12ZM18.5297 12C18.5297 14.6881 16.0491 16.875 13 16.875C9.95089 16.875 7.47027 14.6881 7.47027 12C7.47027 9.31189 9.95089 7.12499 13 7.12499C16.0491 7.12499 18.5297 9.31189 18.5297 12Z" fill="#FFCE93"/></svg>
