<?xml version="1.0" standalone="no"?>
<!DOCTYPE svg PUBLIC "-//W3C//DTD SVG 20010904//EN"
 "http://www.w3.org/TR/2001/REC-SVG-20010904/DTD/svg10.dtd">
<svg version="1.0" xmlns="http://www.w3.org/2000/svg"
 width="686.000000pt" height="686.000000pt" viewBox="0 0 686.000000 686.000000"
 preserveAspectRatio="xMidYMid meet">
<metadata>
Created by potrace 1.11, written by Peter Selinger 2001-2013
</metadata>
<g transform="translate(0.000000,686.000000) scale(0.100000,-0.100000)"
fill="#000000" stroke="none">
<path d="M3255 6854 c-1573 -86 -2888 -1225 -3189 -2764 -46 -236 -60 -386
-60 -660 0 -281 14 -427 64 -680 236 -1184 1094 -2165 2239 -2561 228 -79 509
-142 761 -170 149 -17 571 -17 720 0 899 101 1698 528 2270 1212 430 514 690
1119 777 1804 24 194 24 596 -1 790 -98 776 -417 1445 -951 1994 -555 570
-1277 926 -2065 1015 -139 16 -442 26 -565 20z m999 -875 c60 -48 69 -104 31
-204 -75 -200 -331 -552 -796 -1095 -515 -601 -719 -893 -774 -1105 -19 -76
-19 -214 0 -290 23 -91 78 -195 141 -266 31 -35 231 -244 443 -464 471 -487
565 -586 743 -787 330 -370 494 -606 506 -730 4 -44 2 -50 -31 -83 -26 -26
-43 -35 -69 -35 -92 0 -296 152 -873 652 -149 129 -383 324 -520 435 -670 539
-976 841 -1080 1065 -56 121 -76 208 -82 349 -6 143 9 245 57 367 86 222 187
333 1330 1452 505 495 641 618 778 711 63 42 81 49 121 49 34 0 56 -6 75 -21z"/>
</g>
</svg>
