<?xml version="1.0" standalone="no"?>
<!DOCTYPE svg PUBLIC "-//W3C//DTD SVG 20010904//EN"
 "http://www.w3.org/TR/2001/REC-SVG-20010904/DTD/svg10.dtd">
<svg version="1.0" xmlns="http://www.w3.org/2000/svg"
 width="480.000000pt" height="480.000000pt" viewBox="0 0 480.000000 480.000000"
 preserveAspectRatio="xMidYMid meet">
<metadata>
Created by potrace 1.11, written by Peter Selinger 2001-2013
</metadata>
<g transform="translate(0.000000,480.000000) scale(0.100000,-0.100000)"
fill="#000000" stroke="none">
<path d="M2209 4776 c-2 -2 -33 -7 -69 -10 -62 -5 -93 -10 -152 -22 -15 -3
-39 -7 -55 -9 -15 -2 -73 -16 -128 -30 -55 -15 -107 -28 -115 -30 -8 -2 -40
-13 -70 -25 -30 -12 -62 -23 -70 -25 -49 -11 -360 -165 -360 -177 0 -4 -6 -8
-14 -8 -8 0 -21 -6 -28 -13 -7 -8 -25 -20 -38 -27 -31 -16 -192 -134 -240
-174 -44 -38 -255 -249 -295 -296 -67 -78 -190 -256 -246 -355 -38 -68 -119
-232 -119 -241 0 -3 -6 -20 -14 -37 -15 -35 -40 -99 -42 -107 0 -3 -3 -12 -7
-20 -23 -61 -72 -246 -82 -315 -3 -16 -7 -41 -10 -55 -3 -14 -8 -45 -11 -70
-3 -25 -9 -74 -14 -110 -7 -61 -5 -431 3 -475 2 -11 7 -47 12 -80 4 -33 14
-89 22 -125 7 -36 16 -76 19 -90 16 -80 76 -264 121 -370 65 -154 191 -376
275 -485 133 -173 279 -325 431 -447 94 -75 240 -178 252 -178 3 0 24 -12 47
-26 42 -27 162 -88 230 -118 86 -37 106 -45 168 -66 36 -12 72 -25 80 -28 8
-3 20 -6 25 -7 6 0 17 -4 25 -7 14 -6 59 -18 89 -24 7 -1 34 -8 60 -14 25 -6
60 -12 76 -15 17 -2 41 -7 55 -9 26 -6 64 -11 170 -22 120 -13 400 -7 515 11
17 3 44 7 60 10 17 2 48 7 70 11 22 3 83 17 135 30 52 14 102 26 110 28 78 19
361 133 410 165 14 9 38 23 55 31 34 17 148 87 185 113 160 115 251 189 339
278 295 295 503 646 615 1034 19 66 37 136 40 155 3 19 8 46 11 60 56 274 52
669 -10 940 -1 3 -4 19 -8 35 -4 17 -9 39 -12 50 -7 34 -54 187 -76 245 -88
239 -244 505 -413 705 -187 222 -388 389 -656 544 -163 94 -426 197 -605 237
-38 8 -230 44 -270 50 -45 7 -470 16 -476 10z"/>
</g>
</svg>
