<?xml version="1.0" encoding="iso-8859-1"?>
<!-- Generator: Adobe Illustrator 18.1.1, SVG Export Plug-In . SVG Version: 6.00 Build 0)  -->
<svg version="1.1" id="Capa_1" xmlns="http://www.w3.org/2000/svg" xmlns:xlink="http://www.w3.org/1999/xlink" x="0px" y="0px"
	 viewBox="0 0 456.556 456.556" style="enable-background:new 0 0 456.556 456.556;fill:#5abda8;" xml:space="preserve">
<g>
	<path d="M363.582,397.311H92.974c-7.417,0-13.428-6.011-13.428-13.428V209.349c0-82.013,66.721-148.734,148.734-148.734
		c82.009,0,148.73,66.721,148.73,148.734v174.534C377.01,391.3,370.999,397.311,363.582,397.311z M106.402,370.455h243.752V209.349
		c0-67.204-54.674-121.878-121.874-121.878c-67.204,0-121.878,54.674-121.878,121.878V370.455z"/>
	<path d="M228.28,456.556c-40.071,0-72.673-32.602-72.673-72.673c0-7.417,6.011-13.428,13.428-13.428
		c7.417,0,13.428,6.011,13.428,13.428c0,25.262,20.555,45.816,45.816,45.816s45.816-20.555,45.816-45.816
		c0-7.417,6.011-13.428,13.428-13.428c7.417,0,13.428,6.011,13.428,13.428C300.952,423.954,268.351,456.556,228.28,456.556z"/>
	<path d="M144.214,242.636c-5.934,0-10.742-4.808-10.742-10.742v-32.234c0-42.774,34.798-77.572,77.572-77.572
		c5.934,0,10.742,4.808,10.742,10.743s-4.808,10.742-10.742,10.742c-30.927,0-56.087,25.16-56.087,56.087v32.234
		C154.957,237.828,150.148,242.636,144.214,242.636z"/>
	<path d="M197.175,90.675c-7.417,0-13.428-6.011-13.428-13.428V44.533C183.747,19.978,203.724,0,228.28,0s44.53,19.978,44.53,44.533
		v29.51c0,7.417-6.011,13.428-13.428,13.428c-7.417,0-13.428-6.011-13.428-13.428v-29.51c0-9.746-7.927-17.677-17.673-17.677
		c-9.746,0-17.677,7.931-17.677,17.677v32.714C210.603,84.664,204.592,90.675,197.175,90.675z"/>
</g>
<g>
</g>
<g>
</g>
<g>
</g>
<g>
</g>
<g>
</g>
<g>
</g>
<g>
</g>
<g>
</g>
<g>
</g>
<g>
</g>
<g>
</g>
<g>
</g>
<g>
</g>
<g>
</g>
<g>
</g>
</svg>
