<svg xmlns="http://www.w3.org/2000/svg" xmlns:xlink="http://www.w3.org/1999/xlink" viewBox="0 0 960 960"><defs><style>.cls-1{fill:url(#gradient_125);}.cls-2{fill:url(#gradient_102);}</style><linearGradient id="gradient_125" x1="480" y1="960" x2="480" gradientUnits="userSpaceOnUse"><stop offset="0" stop-color="#3c5a73"/><stop offset="1" stop-color="#78b4b4"/></linearGradient><linearGradient id="gradient_102" x1="449.22" y1="848.71" x2="449.22" y2="102.66" gradientUnits="userSpaceOnUse"><stop offset="0" stop-color="#c8c6c6"/><stop offset="1" stop-color="#ececec"/></linearGradient></defs><title>Logo_CF_noborder</title><g id="Calque_3" data-name="Calque 3"><path class="cls-1" d="M480,0C214.9,0,0,214.9,0,480S214.9,960,480,960,960,745.1,960,480,745.1,0,480,0Z"/><path class="cls-2" d="M644.3,836.52a.47.47,0,0,1,0,.16,15.24,15.24,0,0,1-14.82,11.76C611.79,854.87,495.68,746.2,453,711.67c-40.83-33-169.34-132.06-187.16-180.25a133,133,0,0,1,5.74-122.53c.44-.75.89-1.52,1.39-2.31.29-.45.59-.91.88-1.38s.46-.71.67-1.07c1.27-2,2.57-3.92,3.93-5.82,1.07-1.5,2.17-3,3.32-4.42.55-.73,1.12-1.44,1.71-2.15,1.17-1.44,2.35-2.82,3.58-4.2,43.47-52.69,144.59-144.46,175.69-177,30.66-32,87.89-88.56,115.44-104a34,34,0,0,1,9-3.77,17.42,17.42,0,0,1,2.72-.2,19.09,19.09,0,0,1,19.1,19.1c0,.32,0,.65,0,1-.82,27.86-64.51,109.9-119.35,173-18,20.74-34.53,40.32-49.07,58.54-26.49,33-46.58,61.53-57.65,84.18a85.22,85.22,0,0,0-4.32,9.65A90.07,90.07,0,0,0,398,542.57l.14.15c11.82,13,29,30.67,48.92,51.08C528.3,677,654.56,804.89,644.3,836.52Z"/></g></svg>