<svg xmlns="http://www.w3.org/2000/svg" xmlns:xlink="http://www.w3.org/1999/xlink" viewBox="0 0 943.15 943.15"><defs><style>.cls-1{stroke-miterlimit:10;stroke-width:27px;fill:url(#gradient_125);stroke:url(#gradient_122);}.cls-2{fill:url(#gradient_117);}</style><linearGradient id="gradient_125" x1="480" y1="938.07" x2="480" y2="21.93" gradientUnits="userSpaceOnUse"><stop offset="0" stop-color="#3c5a73"/><stop offset="1" stop-color="#78b4b4"/></linearGradient><linearGradient id="gradient_122" x1="480" y1="951.57" x2="480" y2="8.43" gradientUnits="userSpaceOnUse"><stop offset="0" stop-color="#c8c6c6"/><stop offset="1" stop-color="#ececec"/></linearGradient><linearGradient id="gradient_117" x1="450.62" y1="831.87" x2="450.62" y2="119.9" gradientUnits="userSpaceOnUse"><stop offset="0" stop-color="#c8c6c6"/><stop offset="1" stop-color="#ececec"/></linearGradient></defs><title>Logo_CF_border</title><g id="Calque_3" data-name="Calque 3"><path class="cls-1" d="M480,21.93C227,21.93,21.93,227,21.93,480S227,938.07,480,938.07,938.07,733,938.07,480,733,21.93,480,21.93Z" transform="translate(-8.43 -8.43)"/><path class="cls-2" d="M636.79,820.24a.48.48,0,0,1,0,.15,14.53,14.53,0,0,1-14.14,11.22C605.77,837.75,495,734,454.19,701.08c-39-31.48-161.6-126-178.6-172a126.8,126.8,0,0,1,5.48-116.93c.41-.72.84-1.45,1.31-2.21.29-.43.57-.86.85-1.31s.44-.68.64-1c1.21-1.88,2.45-3.75,3.75-5.56q1.53-2.15,3.16-4.22c.53-.69,1.08-1.37,1.64-2.05,1.11-1.37,2.24-2.69,3.41-4,41.49-50.28,138-137.86,167.67-168.87,29.26-30.57,83.88-84.52,110.17-99.21a33.29,33.29,0,0,1,8.55-3.6,17,17,0,0,1,2.59-.18A18.21,18.21,0,0,1,603,138.13c0,.3,0,.62,0,.94-.8,26.59-61.57,104.88-113.9,165.14-17.2,19.79-33,38.47-46.84,55.86-25.27,31.52-44.44,58.72-55,80.33a80.8,80.8,0,0,0-4.12,9.21,85.95,85.95,0,0,0,18.62,90.1l.13.15c11.28,12.37,27.69,29.26,46.69,48.74C526.09,668,646.58,790.05,636.79,820.24Z" transform="translate(-8.43 -8.43)"/></g></svg>