<svg width="77px" height="77px" viewBox="0 0 77 77" version="1.1" xmlns="http://www.w3.org/2000/svg" xmlns:xlink="http://www.w3.org/1999/xlink">
    <defs>
        <polygon id="path-1" points="22 10.0909091 50 10.0909091 50 62.5636364 22 62.5636364"></polygon>
    </defs>
    <g id="Page-1" stroke="none" stroke-width="1" fill="none" fill-rule="evenodd">
        <g id="Page-d'accueil" transform="translate(-37.000000, -18.000000)">
            <g id="Page"></g>
            <g id="Menu" transform="translate(0.000000, 20.000000)">
                <g id="Logo" transform="translate(39.000000, 0.190909)">
                    <ellipse id="Oval" stroke="#424242" stroke-width="4" cx="36.3372734" cy="36.3272727" rx="36.3372734" ry="36.3272727"></ellipse>
                    <mask id="mask-2" fill="white">
                        <use xlink:href="#path-1"></use>
                    </mask>
                    <g id="Clip-2"></g>
                    <path d="M49.9579012,61.706044 C49.9586167,61.7098416 49.9586167,61.7135688 49.9579012,61.7172961 C49.8424073,62.2013439 49.4033301,62.5437569 48.8974897,62.5443898 C47.6315649,62.9965804 39.3230168,55.3543494 36.2689402,52.9259526 C33.3472451,50.6052236 24.1513833,43.6388874 22.8762276,40.2498494 C21.5767424,37.4833295 21.7300187,34.2679946 23.286968,31.6329826 C23.3184533,31.5802387 23.3506542,31.5260884 23.386433,31.4705316 C23.4071847,31.4388149 23.428652,31.4064654 23.4494037,31.3734829 C23.4701554,31.3403598 23.4823201,31.323552 23.4973472,31.2981647 C23.5882253,31.1575144 23.6812502,31.0224902 23.7785684,30.8889428 C23.855135,30.7834551 23.9338483,30.6779674 24.0161395,30.5781058 C24.0554962,30.5267684 24.096284,30.4768376 24.138503,30.4268364 C24.2222253,30.3255682 24.3066632,30.2285196 24.394679,30.1315412 C27.5052861,26.4261106 34.7411864,19.9723742 36.9666264,17.6839947 C39.1605812,15.4335908 43.2558202,11.4559316 45.2273025,10.370182 C45.4278068,10.2517545 45.6447693,10.162512 45.8713206,10.104986 C45.9356508,10.0953515 46.0007682,10.0906397 46.0658856,10.090921 C46.8203169,10.0905694 47.4322771,10.6912865 47.4326349,11.4327243 L47.4326349,11.4341308 L47.4326349,11.5044559 C47.3739577,13.4637138 42.8164568,19.2331868 38.8922403,23.670702 C37.6042043,25.1293153 36.4213578,26.5062109 35.3809109,27.7875346 C33.4853512,30.1082636 32.0477599,32.1146393 31.2556177,33.7075737 C31.1384064,33.9272694 31.0351489,34.1538569 30.9464891,34.3862111 C30.0601056,36.6790914 30.6002936,39.268814 32.3332745,41.0340449 L32.3432926,41.0445233 C33.1891029,41.9587499 34.4184618,43.2013948 35.8438884,44.6367305 C41.6572244,50.4877806 50.6920817,59.4816605 49.9579012,61.706044" id="Fill-1" fill="#424242" mask="url(#mask-2)"></path>
                </g>
            </g>
        </g>
    </g>
</svg>