<?xml version="1.0" encoding="iso-8859-1"?>
<!-- Generator: Adobe Illustrator 19.0.0, SVG Export Plug-In . SVG Version: 6.00 Build 0)  -->
<svg version="1.1" id="Layer_1" xmlns="http://www.w3.org/2000/svg" xmlns:xlink="http://www.w3.org/1999/xlink" x="0px" y="0px"
	 viewBox="0 0 512.107 512.107" style="enable-background:new 0 0 512.107 512.107;" xml:space="preserve">
<g transform="translate(1 1)">
	<g>
		<path d="M408.653,191.107c0-0.001,0-0.002,0-0.002v-3.411c0-0.767-0.173-1.356-0.363-1.855c-0.377-2.793-1.042-5.49-1.98-8.054
			c-4.988-15.344-19.528-25.931-36.057-25.931c-8.431,0-16.025,2.502-21.967,6.677c-0.396-2.186-0.964-4.309-1.709-6.346
			c-4.988-15.344-19.528-25.931-36.057-25.931c-7.68,0-15.36,2.56-21.333,6.827V38.36c0-18.773-12.8-34.987-29.867-38.4
			c-11.947-2.56-23.04,0-32.427,7.68s-14.507,17.92-14.507,29.867V143.32c-1.707-1.707-3.413-3.413-5.973-4.267
			c-11.947-5.973-24.747-4.267-35.84,3.413c-11.093,7.68-17.92,21.333-17.92,36.693v56.32l-12.8,7.68
			c-0.274,0.109-0.536,0.234-0.788,0.37c-25.896,11.997-37.612,32.41-37.612,67.043v25.6c0,69.12,45.227,102.4,59.733,111.787
			v24.747c0,21.333,17.067,38.4,38.4,38.4H348.92c19.627,0,34.133-20.48,34.133-38.4V445.4c25.6-34.987,25.6-41.813,25.6-110.08
			v-88.747v-1.707v-2.558c0-0.001,0-0.002,0-0.002V191.107z M289.187,165.507c0-11.947,9.387-21.333,21.333-21.333
			s21.333,9.387,21.333,21.333v25.6v51.2v17.067c0,11.947-9.387,21.333-21.333,21.333s-21.333-9.387-21.333-21.333V165.507z
			 M348.92,191.107c0-11.947,9.387-21.333,21.333-21.333c0.705,0,1.4,0.038,2.086,0.102c3.924,0.381,7.56,1.831,10.601,4.009
			c0.211,0.155,0.425,0.306,0.63,0.469c0.19,0.147,0.373,0.301,0.557,0.453c4.582,3.886,7.458,9.697,7.458,16.3v51.2
			c0,11.947-9.387,21.333-21.333,21.333s-21.333-9.387-21.333-21.333V191.107z M169.72,179.16c0-9.387,4.267-17.92,11.093-23.04
			c3.413-2.56,6.827-3.413,10.24-3.413c2.56,0,5.12,0.853,6.827,1.707c8.533,4.267,14.507,14.507,14.507,23.893v8.54
			c-4.844,2.706-10.022,7.028-15.36,13.647c-6.318,7.776-15.688,16.105-27.307,24.357V179.16z M370.203,434.307h-12.75
			c-5.12,0-8.533,3.413-8.533,8.533s3.413,8.533,8.533,8.533h8.533v21.333c0,9.387-7.68,21.333-17.067,21.333H199.587
			c-11.947,0-21.333-9.387-21.333-21.333v-17.448c9.133,3.002,18.425,4.648,27.307,4.648c6.827,0,14.507-0.853,20.48-3.413
			c12.8-4.267,22.187-14.507,28.16-27.307c1.707-4.267,0-9.387-4.267-11.093s-9.387,0-11.093,4.267
			c-4.267,8.533-10.24,14.507-18.773,17.92c-14.57,5.666-32.207,1.35-44.908-4.207c-0.369-0.324-0.754-0.634-1.172-0.913
			c-2.56-0.853-55.467-29.013-55.467-98.987v-25.6c0-28.16,8.533-43.52,29.013-52.053c0-0.198,0.049-0.346,0.12-0.463
			c0.247-0.118,0.492-0.245,0.734-0.39c27.307-14.507,50.347-31.573,62.293-46.933c5.973-6.827,14.507-14.507,22.187-9.387
			c8.533,5.973,12.8,23.04,7.68,32.427c-15.36,26.453-53.76,57.173-74.24,62.293c-4.267,0.853-6.827,5.973-5.973,10.24
			c1.707,3.413,5.12,5.973,8.533,5.973c0.853,0,1.707,0,1.707,0c11.28-3.223,26.744-12.155,41.813-23.916v9.41
			c0,5.12,3.413,8.533,8.533,8.533c5.12,0,8.533-3.413,8.533-8.533v-24.182c10.287-9.884,19.417-20.685,25.6-31.285
			c9.387-17.067,3.413-43.52-12.8-54.613c-2.143-1.429-6.685-4.046-12.8-4.675v-4.712v-4.267V37.507c0-6.827,2.56-12.8,7.68-17.067
			s11.093-5.973,17.92-4.267c10.24,2.56,17.067,11.947,17.067,22.187v127.147v93.867c0,21.333,17.067,38.4,38.4,38.4
			c16.666,0,30.728-10.416,36.083-25.145c6.504,5.065,14.698,8.078,23.65,8.078c7.918,0,15.245-2.355,21.333-6.403v61.869
			C391.587,401.957,391.583,405.147,370.203,434.307z"/>
	</g>
</g>
<g>
</g>
<g>
</g>
<g>
</g>
<g>
</g>
<g>
</g>
<g>
</g>
<g>
</g>
<g>
</g>
<g>
</g>
<g>
</g>
<g>
</g>
<g>
</g>
<g>
</g>
<g>
</g>
<g>
</g>
</svg>
