<?xml version="1.0" encoding="iso-8859-1"?>
<!-- Generator: Adobe Illustrator 19.0.0, SVG Export Plug-In . SVG Version: 6.00 Build 0)  -->
<svg version="1.1" id="Capa_1" xmlns="http://www.w3.org/2000/svg" xmlns:xlink="http://www.w3.org/1999/xlink" x="0px" y="0px"
	 viewBox="0 0 512 512" style="enable-background:new 0 0 512 512;" xml:space="preserve">
<g>
	<g>
		<path d="M503.658,419.042l-17.111-19.221c-2.753-3.092-7.493-3.37-10.589-0.614c-3.094,2.754-3.369,7.495-0.614,10.589
			l17.11,19.22c2.929,3.291,4.542,7.529,4.542,11.936v48.84c0,3.974-3.233,7.207-7.207,7.207H355.927
			c-6.894,0-13.477-2.953-18.061-8.103l-12.615-14.17L437.5,367.289l14.552,16.346c2.753,3.092,7.493,3.369,10.589,0.614
			c3.094-2.754,3.369-7.495,0.614-10.589l-43.566-48.939c-6.269-7.04-17.066-7.419-23.825-0.952l-1.114,1.066l-37.47-42.952
			c-13.985-16.034-12.562-31.378-16.615-47.036C322.684,88.689,315.477,29.872,315.359,29.339
			C309.283,1.687,274.022-10.205,256,10.437c-19.475-22.305-56.318-5.575-59.478,19.596l-25.187,204.814
			c-3.944,15.237-2.69,31.071-16.615,47.035l-37.47,42.953l-1.114-1.066c-6.763-6.477-17.57-6.077-23.825,0.952
			c-21.393,24.031-69.964,78.592-83.969,94.322c-5.378,6.04-8.339,13.821-8.339,21.908v48.84C0.003,502.037,9.966,512,22.211,512
			h25.309c4.143,0,7.5-3.357,7.5-7.5s-3.357-7.5-7.5-7.5H22.211c-3.974,0-7.207-3.233-7.207-7.207v-48.84
			c0-4.405,1.613-8.644,4.542-11.935L74.5,367.288l64.991,62.205c2.992,2.865,7.74,2.759,10.604-0.232
			c2.864-2.992,2.761-7.739-0.232-10.604l-65.382-62.58c19.636-21.67,18.774-21.848,20.141-21.905
			c1.402-0.072-3.276-3.431,108.293,102.991c2.203,2.107,2.34,5.542,0.313,7.819l-16.498,18.532l-21.56-20.635
			c-2.993-2.866-7.741-2.761-10.604,0.232c-2.864,2.992-2.761,7.739,0.232,10.604l21.951,21.01l-12.616,14.171
			c-4.583,5.148-11.166,8.102-18.06,8.102H82.521c-4.143,0-7.5,3.357-7.5,7.5s3.357,7.5,7.5,7.5h73.551
			c11.172,0,21.838-4.785,29.264-13.129c11.609-13.042,24.261-27.253,39.093-43.913c7.423-8.337,6.92-20.914-1.145-28.632
			l-4.507-4.314c21.401-31.439,29.791-39.207,37.223-57.978c7.43,18.767,15.819,26.534,37.222,57.978l-4.507,4.314
			c-8.063,7.718-8.566,20.295-1.145,28.633l39.093,43.912c7.427,8.344,18.094,13.13,29.265,13.13h133.86
			c12.246,0,22.208-9.962,22.208-22.208v-48.84C511.995,432.865,509.035,425.085,503.658,419.042z M211.364,32.239
			c2.354-10.004,11.448-17.231,21.751-17.231c8.482,0,15.384,6.9,15.384,15.384v48.628c-14.288-8.425-33.239-3.586-44.028,9.274
			L211.364,32.239z M248.499,324.571c0,19.184-5.847,37.607-16.909,53.277l-23.579,33.403l-79.696-76.282l37.71-43.228
			c8.05-9.229,13.536-20.461,15.863-32.482l29.423-151.972c2.266-10.125,11.422-17.466,21.805-17.466
			c8.482,0,15.384,6.9,15.384,15.384C248.499,114.37,248.499,318.833,248.499,324.571z M263.5,30.391
			c0-8.482,6.9-15.384,15.384-15.384c10.302,0,19.397,7.227,21.752,17.231l6.893,56.057c-10.789-12.86-29.74-17.702-44.029-9.275
			V30.391z M280.41,377.85c-11.063-15.672-16.91-34.096-16.91-53.278c0-5.732,0-210.209,0-219.365c0-8.482,6.9-15.384,15.384-15.384
			c10.382,0,19.538,7.338,21.805,17.464l29.424,151.974c2.328,12.022,7.813,23.254,15.863,32.483l37.71,43.228l-79.697,76.281
			L280.41,377.85z M298.773,444.985c-2.027-2.278-1.89-5.713,0.313-7.821c113.217-108.188,107.725-104.347,109.399-102.468
			l19.034,21.382L315.272,463.516L298.773,444.985z"/>
	</g>
</g>
<g>
</g>
<g>
</g>
<g>
</g>
<g>
</g>
<g>
</g>
<g>
</g>
<g>
</g>
<g>
</g>
<g>
</g>
<g>
</g>
<g>
</g>
<g>
</g>
<g>
</g>
<g>
</g>
<g>
</g>
</svg>
