<?xml version="1.0" encoding="iso-8859-1"?>
<!-- Generator: Adobe Illustrator 16.0.0, SVG Export Plug-In . SVG Version: 6.00 Build 0)  -->
<!DOCTYPE svg PUBLIC "-//W3C//DTD SVG 1.1//EN" "http://www.w3.org/Graphics/SVG/1.1/DTD/svg11.dtd">
<svg version="1.1" id="Capa_1" xmlns="http://www.w3.org/2000/svg" xmlns:xlink="http://www.w3.org/1999/xlink" x="0px" y="0px"
	 width="32px" height="32px" viewBox="0 0 32 32" style="enable-background:new 0 0 32 32;fill:#5abda8;" xml:space="preserve">
<g>
	<g id="Desktop">
		<g>
			<path d="M23,30h-2c-1.104,0-2-0.896-2-2v-3h-6v3c0,1.104-0.896,2-2,2H9c-0.553,0-1,0.448-1,1c0,0.553,0.447,1,1,1h14
				c0.553,0,1-0.447,1-1C24,30.448,23.553,30,23,30z M30.25,0H1.75C0.784,0,0,0.84,0,1.875v19.25C0,22.16,0.784,23,1.75,23h28.5
				c0.966,0,1.75-0.84,1.75-1.875V1.875C32,0.84,31.216,0,30.25,0z M30,21H2V2h28V21z"/>
		</g>
	</g>
</g>
<g>
</g>
<g>
</g>
<g>
</g>
<g>
</g>
<g>
</g>
<g>
</g>
<g>
</g>
<g>
</g>
<g>
</g>
<g>
</g>
<g>
</g>
<g>
</g>
<g>
</g>
<g>
</g>
<g>
</g>
</svg>
