<?xml version="1.0" encoding="iso-8859-1"?>
<!-- Generator: Adobe Illustrator 16.0.0, SVG Export Plug-In . SVG Version: 6.00 Build 0)  -->
<!DOCTYPE svg PUBLIC "-//W3C//DTD SVG 1.1//EN" "http://www.w3.org/Graphics/SVG/1.1/DTD/svg11.dtd">
<svg version="1.1" id="Capa_1" xmlns="http://www.w3.org/2000/svg" xmlns:xlink="http://www.w3.org/1999/xlink" x="0px" y="0px"
	 width="106.059px" height="106.059px" viewBox="0 0 106.059 106.059" style="enable-background:new 0 0 106.059 106.059;"
	 xml:space="preserve">
<g>
	<path d="M15.515,15.511C-5.173,36.198-5.171,69.858,15.517,90.545c20.682,20.686,54.34,20.686,75.026-0.004
		c20.688-20.684,20.686-54.341,0.002-75.024C69.857-5.172,36.199-5.172,15.515,15.511z M84.757,84.756
		c-17.493,17.494-45.961,17.496-63.455,0.003c-17.498-17.497-17.495-45.966,0-63.46C38.795,3.806,67.262,3.804,84.759,21.301
		C102.254,38.795,102.252,67.263,84.757,84.756z M74.717,77.549c-22.712,20.021-43.376,0-43.376,0
		c0-11.55,9.711-20.913,21.688-20.913C65.005,56.636,74.717,66,74.717,77.549z M48.899,37.671c0-5.773-4.688-10.459-10.459-10.459
		c-5.773,0-10.459,4.686-10.459,10.459c0,5.772,4.686,10.459,10.459,10.459C44.211,48.13,48.899,43.443,48.899,37.671z
		 M30.136,37.671c0-4.579,3.724-8.305,8.304-8.305c4.577,0,8.304,3.726,8.304,8.305s-3.727,8.305-8.304,8.305
		C33.86,45.976,30.136,42.25,30.136,37.671z M44.94,37.671c0-3.588-2.914-6.5-6.5-6.5c-3.588,0-6.5,2.912-6.5,6.5
		c0,3.587,2.912,6.5,6.5,6.5C42.026,44.171,44.94,41.257,44.94,37.671z M33.94,37.671c0-2.481,2.018-4.5,4.5-4.5
		c2.48,0,4.5,2.019,4.5,4.5s-2.02,4.5-4.5,4.5C35.958,42.171,33.94,40.152,33.94,37.671z M38.44,39.671c-1.104,0-2-0.896-2-2
		s0.896-2,2-2s2,0.896,2,2S39.544,39.671,38.44,39.671z M68.558,27.212c-5.772,0-10.459,4.686-10.459,10.459
		c0,5.772,4.687,10.459,10.459,10.459c5.771,0,10.459-4.687,10.459-10.459C79.017,31.897,74.328,27.212,68.558,27.212z
		 M68.558,45.976c-4.58,0-8.304-3.726-8.304-8.305s3.724-8.305,8.304-8.305c4.577,0,8.305,3.726,8.305,8.305
		S73.135,45.976,68.558,45.976z M68.558,31.171c-3.588,0-6.5,2.912-6.5,6.5c0,3.587,2.912,6.5,6.5,6.5c3.587,0,6.5-2.913,6.5-6.5
		C75.058,34.083,72.145,31.171,68.558,31.171z M68.558,42.171c-2.481,0-4.5-2.019-4.5-4.5s2.019-4.5,4.5-4.5
		c2.48,0,4.5,2.019,4.5,4.5S71.039,42.171,68.558,42.171z M70.558,37.671c0,1.104-0.896,2-2,2c-1.104,0-2-0.896-2-2s0.896-2,2-2
		C69.662,35.671,70.558,36.567,70.558,37.671z"/>
</g>
<g>
</g>
<g>
</g>
<g>
</g>
<g>
</g>
<g>
</g>
<g>
</g>
<g>
</g>
<g>
</g>
<g>
</g>
<g>
</g>
<g>
</g>
<g>
</g>
<g>
</g>
<g>
</g>
<g>
</g>
</svg>
