<?xml version="1.0" encoding="iso-8859-1"?>
<!-- Generator: Adobe Illustrator 19.0.0, SVG Export Plug-In . SVG Version: 6.00 Build 0)  -->
<svg version="1.1" id="Capa_1" xmlns="http://www.w3.org/2000/svg" xmlns:xlink="http://www.w3.org/1999/xlink" x="0px" y="0px"
	 viewBox="0 0 512 512" style="enable-background:new 0 0 512 512;" xml:space="preserve">
<g>
	<g>
		<path d="M394.163,119.466c-4.535-31.37-19.603-60.217-43.037-82.042C325.213,13.291,291.431,0,256.002,0
			c-35.429,0-69.211,13.291-95.125,37.424c-23.434,21.825-38.501,50.672-43.037,82.042c-50.475,22.04-83.763,72.319-83.763,127.977
			c0,76.979,62.627,139.605,139.605,139.605c23.725,0,46.846-6.032,67.318-17.307V512h30V369.741
			c20.472,11.275,43.593,17.307,67.318,17.307c76.979,0,139.605-62.627,139.605-139.605
			C477.926,191.785,444.638,141.505,394.163,119.466z M338.32,357.048c-24.474,0-48.13-8.171-67.318-23.122v-91.75l67.279-35.375
			l-13.962-26.553l-53.317,28.034V149.23h-30v125.545l-53.317-28.034l-13.962,26.553l67.279,35.375v25.257
			c-19.188,14.951-42.844,23.122-67.318,23.122c-60.437,0-109.605-49.169-109.605-109.605c0-46.211,29.226-87.7,72.725-103.241
			l9.176-3.278l0.734-9.716c2.078-27.469,14.369-52.979,34.61-71.83C201.665,40.433,228.187,30,256.002,30
			s54.337,10.433,74.679,29.377c20.241,18.851,32.532,44.36,34.61,71.83l0.734,9.716l9.176,3.278
			c43.499,15.541,72.725,57.03,72.725,103.241C447.926,307.879,398.757,357.048,338.32,357.048z"/>
	</g>
</g>
<g>
</g>
<g>
</g>
<g>
</g>
<g>
</g>
<g>
</g>
<g>
</g>
<g>
</g>
<g>
</g>
<g>
</g>
<g>
</g>
<g>
</g>
<g>
</g>
<g>
</g>
<g>
</g>
<g>
</g>
</svg>
